<?xml version="1.0" encoding="UTF-8" standalone="no"?> <svg id="icon" xmlns="http://www.w3.org/2000/svg" viewBox="0 0 512 512"><title>skin hair</title><path d="M65.89,351.78a72,72,0,0,1,8.92,2.9c11.52,4.51,62.6,22.45,113.6,8.37a9.42,9.42,0,0,0,6.78-10.29,78.7,78.7,0,0,1-.57-10.67q.36-24.72,2.21-48.19a7.06,7.06,0,0,0-7-7.63H127.31a77.73,77.73,0,0,1-11.09-44.77c.9-16.68,3.49-47.56,10.89-79.13,1.57-6.7-7.7-10.18-10.94-4.11-14.16,26.57-31,68.81-38.37,128H45.36a16.44,16.44,0,0,0-16.44,16.44v33.75A12.57,12.57,0,0,0,41.82,349,89.91,89.91,0,0,1,65.89,351.78Z"/><path d="M483.08,374a12.59,12.59,0,0,0-13.5-12.56c-10.61.77-21.86,3.4-31.89,9.48-14.8,9-33.19,12.55-54.65,10.63a133.76,133.76,0,0,1-44.4-12.23q-3.57-1.67-7.11-3.07a9.42,9.42,0,0,0-12.33,5.38,61,61,0,0,1-15.12,23,60.17,60.17,0,0,1-26.73,14.76,109.67,109.67,0,0,1-19.55,2.34c-31,1.49-46.29-17.7-52.35-28.32A9.4,9.4,0,0,0,194.71,379a170.18,170.18,0,0,1-47.13,6.39c-38.19,0-69.89-11.21-79-14.77a53.76,53.76,0,0,0-6.8-2.23,72.82,72.82,0,0,0-21-2.22,12.55,12.55,0,0,0-11.91,12.57V443H483.08Z"/><path d="M323.69,338.92a9.52,9.52,0,0,0,6.33,8.54,163.66,163.66,0,0,1,15.8,6.37,117,117,0,0,0,38.74,10.71c17.76,1.58,32.66-1.18,44.29-8.23,13.61-8.25,28.57-11.44,42.23-12.12a12.59,12.59,0,0,0,12-12.56V302.71a16.44,16.44,0,0,0-16.44-16.44h-35.8a77.73,77.73,0,0,1-11.09-44.77c.9-16.68,3.49-47.56,10.89-79.13,1.57-6.7-7.7-10.18-10.94-4.11-14.17,26.57-31,68.81-38.37,128H318.64a7,7,0,0,0-6.3,10.19c8.5,17.11,10.29,31.09,10.61,34.42C323.31,333.65,323.55,336.33,323.69,338.92Z"/><path d="M294.53,76.91a6.27,6.27,0,0,0-6.2-7.89,6.07,6.07,0,0,0-5.15,2.86C260.52,106,225.06,172.07,214.6,286.27c-1.61,17.54-2.63,36.2-2.92,56.07a62,62,0,0,0,.87,11.39,56,56,0,0,0,5.4,16.34c.15.29.28.58.43.87,6.21,11.53,17.87,23.69,39.42,23.69a70.54,70.54,0,0,0,15.8-1.92s25.32-5.19,31.71-34.24a67.94,67.94,0,0,0,1.4-17.18c-.1-2.71-.32-5.55-.72-8.55,0,0-1.6-20.32-16.88-42.05-1-1.46-2-2.93-2.95-4.42a112.65,112.65,0,0,1-18-65.14C269.44,190.23,279.35,135.26,294.53,76.91Z"/></svg>