<svg id="Layer_1" enable-background="new 0 0 512 512" height="512" viewBox="0 0 512 512" width="512" xmlns="http://www.w3.org/2000/svg"><g id="_x32_7_Beard"><path d="m510.796 209.046-11.71-167.43c-.817-11.983-17.538-14.052-21.242-2.615-18.301 56.917-39.869 126.362-66.395 152.669-3.921 3.921-10.076 4.085-14.433.708-84.26-65.087-199.075-64.052-282.027 0-4.357 3.377-10.512 3.213-14.433-.708-26.525-26.306-48.148-95.75-66.449-152.669-3.649-11.438-20.37-9.368-21.242 2.615l-11.656 167.43c-4.249 40.741 2.669 82.027 21.242 118.41 18.573 36.275 40.141 69.717 65.251 100.001 27.941 33.552 69.227 53.104 112.854 53.104h110.839c43.682 0 84.968-19.554 112.854-53.104 25.163-30.284 46.732-63.726 65.251-100.001 18.573-36.383 25.545-77.669 21.296-118.41zm-192.974 61.438c-7.952 0-25.925-8.769-43.79-16.885-11.492-5.229-24.619-5.229-36.057 0-17.919 8.115-35.839 16.885-43.79 16.885-16.394 0-29.739-13.289-29.739-29.738 0-26.852 35.785-39.924 67.429-36.765 16.068 1.634 32.19 1.634 48.257 0 31.59-3.16 67.375 9.912 67.375 36.765-.001 16.448-13.291 29.738-29.685 29.738z"/></g></svg>